{"title":"The Incredible Hulk 2008 720p (+14 idx-subs) BRRip x264-TheRival","uid":15237903,"size":1440666330,"categoryP":"video","categoryS":"hd___movies","magnet":"?xt=urn:btih:3f8559f57fcbb8782b67a0d1f6be23e54a827eb7&amp;dn=The+Incredible+Hulk+2008+720p+%28%2B14+idx-subs%29+BRRip+x264-TheRival&amp;tr=udp%3A%2F%2Ftracker.leechers-paradise.org%3A6969&amp;tr=udp%3A%2F%2Fzer0day.ch%3A1337&amp;tr=udp%3A%2F%2Fopen.demonii.com%3A1337&amp;tr=udp%3A%2F%2Ftracker.coppersurfer.tk%3A6969&amp;tr=udp%3A%2F%2Fexodus.desync.com%3A6969","seeders":2,"leechers":1,"uploader":"TheRival","files":3,"time":1467906903,"description":"Subtitles:\r\nEnglish, Portuguese, Czech, Hungarian, Spanish, Polish, Bulgarian, Chinese, Croatian, Modern Greek, Hebrew, Icelandic, Romanian, Turkish\r\n\r\nScreens: \nhttp://extraimago.com/image/ao3M \nhttp://extraimago.com/image/ao3U \nhttp://extraimago.com/image/ao3z \nhttp://extraimago.com/image/ao30 \nhttp://extraimago.com/image/ao3J\r\n\r\nVideo\r\nID : 1\r\nFormat : AVC\r\nFormat/Info : Advanced Video Codec\r\nFormat profile :   \r\nFormat settings, CABAC : Yes\r\nFormat settings, ReFrames : 4 frames\r\nCodec ID : avc1\r\nCodec ID/Info : Advanced Video Coding\r\nDuration : 1h 52mn\r\nBit rate : 1 500 Kbps\r\nWidth : 1 280 pixels\r\nHeight : 720 pixels\r\nDisplay aspect ratio : 16:9\r\nFrame rate mode : Constant\r\nFrame rate : 23.976 (24000/1001) fps\r\nColor space : YUV\r\nChroma subsampling : 4:2:0\r\nBit depth : 8 bits\r\nScan type : Progressive\r\nBits/(Pixel*Frame) : 0.068\r\nStream size : 1.18 GiB (92%)\r\nWriting library : x264 core 146\r\nEncoding settings : cabac=1 / ref=1 / deblock=1:0:0 / analyse=0x1:0x1 / me=dia / subme=1 / psy=1 / psy_rd=1.00:0.00 / mixed_ref=0 / me_range=16 / chroma_me=1 / trellis=0 / 8x8dct=0 / cqm=0 / deadzone=21,11 / fast_pskip=1 / chroma_qp_offset=0 / threads=6 / lookahead_threads=1 / sliced_threads=0 / nr=0 / decimate=1 / interlaced=0 / bluray_compat=0 / constrained_intra=0 / bframes=3 / b_pyramid=2 / b_adapt=1 / b_bias=0 / direct=1 / weightb=1 / open_gop=0 / weightp=1 / keyint=250 / keyint_min=23 / scenecut=40 / intra_refresh=0 / rc=2pass / mbtree=0 / bitrate=1500 / ratetol=1.0 / qcomp=0.60 / qpmin=0 / qpmax=69 / qpstep=4 / cplxblur=20.0 / qblur=0.5 / ip_ratio=1.40 / pb_ratio=1.30 / aq=1:1.00\r\n\r\nAudio\r\nID : 2\r\nFormat : AAC\r\nFormat/Info : Advanced Audio Codec\r\nFormat profile : LC\r\nCodec ID : 40\r\nDuration : 1h 52mn\r\nBit rate mode : Constant\r\nBit rate : 128 Kbps\r\nChannel(s) : 2 channels\r\nChannel positions : Front: L R\r\nSampling rate : 48.0 KHz\r\nFrame rate : 46.875 fps (1024 spf)\r\nCompression mode : Lossy\r\nStream size : 103 MiB (8%)\r\nLanguage : English\r\nDefault : Yes\r\nAlternate group : 1","torrent":{"xt":"urn:btih:3f8559f57fcbb8782b67a0d1f6be23e54a827eb7","amp;dn":"The+Incredible+Hulk+2008+720p+%28%2B14+idx-subs%29+BRRip+x264-TheRival","amp;tr":["udp%3A%2F%2Ftracker.leechers-paradise.org%3A6969","udp%3A%2F%2Fzer0day.ch%3A1337","udp%3A%2F%2Fopen.demonii.com%3A1337","udp%3A%2F%2Ftracker.coppersurfer.tk%3A6969","udp%3A%2F%2Fexodus.desync.com%3A6969"],"infoHash":"3f8559f57fcbb8782b67a0d1f6be23e54a827eb7","infoHashBuffer":{"type":"Buffer","data":[63,133,89,245,127,203,184,120,43,103,160,209,246,190,35,229,74,130,126,183]},"announce":[],"urlList":[]}}